<svg width="333" height="256" viewBox="0 0 333 256" fill="none" xmlns="http://www.w3.org/2000/svg">
<g clip-path="url(#clip0)">
<path d="M76.6762 177.167L102.458 136.602L44.7186 99.8665L14.9004 146.783L62.6583 177.167H76.6762Z" fill="#F0F0F0"/>
<path d="M113.212 189.822H49.3486V176.959H113.212V189.822ZM50.178 188.992H112.382V177.789H50.178V188.992Z" fill="#3F3D56"/>
<path d="M105.332 187.54C107.623 187.54 109.479 185.682 109.479 183.391C109.479 181.099 107.623 179.241 105.332 179.241C103.042 179.241 101.186 181.099 101.186 183.391C101.186 185.682 103.042 187.54 105.332 187.54Z" fill="#264653"/>
<path d="M93.721 187.54C96.0113 187.54 97.868 185.682 97.868 183.391C97.868 181.099 96.0113 179.241 93.721 179.241C91.4307 179.241 89.5741 181.099 89.5741 183.391C89.5741 185.682 91.4307 187.54 93.721 187.54Z" fill="#264653"/>
<path d="M82.1096 187.54C84.3999 187.54 86.2565 185.682 86.2565 183.391C86.2565 181.099 84.3999 179.241 82.1096 179.241C79.8193 179.241 77.9626 181.099 77.9626 183.391C77.9626 185.682 79.8193 187.54 82.1096 187.54Z" fill="#264653"/>
<path d="M70.4981 187.54C72.7884 187.54 74.6451 185.682 74.6451 183.391C74.6451 181.099 72.7884 179.241 70.4981 179.241C68.2079 179.241 66.3512 181.099 66.3512 183.391C66.3512 185.682 68.2079 187.54 70.4981 187.54Z" fill="#264653"/>
<path d="M58.8867 187.54C61.177 187.54 63.0336 185.682 63.0336 183.391C63.0336 181.099 61.177 179.241 58.8867 179.241C56.5964 179.241 54.7397 181.099 54.7397 183.391C54.7397 185.682 56.5964 187.54 58.8867 187.54Z" fill="#264653"/>
<path d="M189.101 46.8849V15.3517H204.859V0H127.726V77.1734H193.663V69.628C193.663 68.2215 193.939 66.8287 194.477 65.5292C195.015 64.2297 195.804 63.049 196.798 62.0544C197.792 61.0598 198.972 60.2709 200.271 59.7326C201.57 59.1944 202.962 58.9173 204.368 58.9173H204.859V46.8849H189.101Z" fill="#F0F0F0"/>
<path d="M274.528 199.157H223.106V209.945H274.528V199.157Z" fill="#264653"/>
<path d="M285.725 146.049H210.25V156.006H285.725V146.049Z" fill="#F0F0F0"/>
<path d="M322.633 255.17H0V256H322.633V255.17Z" fill="#3F3D56"/>
<path d="M298.657 256H204.368C201.419 255.997 198.593 254.823 196.508 252.738C194.424 250.652 193.251 247.824 193.248 244.874V69.628C193.251 66.6784 194.424 63.8505 196.508 61.7648C198.593 59.679 201.419 58.5058 204.368 58.5024H298.657C301.605 58.5058 304.432 59.679 306.516 61.7648C308.601 63.8505 309.774 66.6784 309.777 69.628V244.874C309.774 247.824 308.601 250.652 306.516 252.738C304.432 254.823 301.605 255.997 298.657 256ZM204.368 59.3323C201.639 59.3354 199.024 60.4211 197.095 62.3513C195.165 64.2814 194.08 66.8984 194.077 69.628V244.874C194.08 247.604 195.165 250.221 197.095 252.151C199.024 254.081 201.639 255.167 204.368 255.17H298.657C301.385 255.167 304.001 254.081 305.93 252.151C307.859 250.221 308.945 247.604 308.948 244.874V69.628C308.945 66.8984 307.859 64.2814 305.93 62.3513C304.001 60.4211 301.385 59.3354 298.657 59.3323H204.368Z" fill="#3F3D56"/>
<path d="M240.316 66.8007C239.824 66.8007 239.343 66.6547 238.933 66.3811C238.524 66.1076 238.205 65.7188 238.017 65.2639C237.829 64.809 237.779 64.3084 237.875 63.8255C237.971 63.3426 238.208 62.899 238.556 62.5509C238.904 62.2027 239.348 61.9656 239.83 61.8696C240.313 61.7735 240.813 61.8228 241.268 62.0112C241.723 62.1996 242.111 62.5187 242.385 62.9281C242.658 63.3375 242.804 63.8188 242.804 64.3112C242.803 64.9712 242.541 65.604 242.074 66.0707C241.608 66.5374 240.975 66.7999 240.316 66.8007ZM240.316 62.6515C239.988 62.6515 239.667 62.7489 239.394 62.9312C239.121 63.1136 238.909 63.3728 238.783 63.6761C238.658 63.9793 238.625 64.313 238.689 64.635C238.753 64.9569 238.911 65.2526 239.143 65.4847C239.375 65.7168 239.67 65.8749 239.992 65.9389C240.314 66.003 240.647 65.9701 240.95 65.8445C241.254 65.7189 241.513 65.5062 241.695 65.2332C241.877 64.9603 241.974 64.6394 241.974 64.3112C241.974 63.8712 241.799 63.4493 241.488 63.1382C241.177 62.827 240.755 62.652 240.316 62.6515Z" fill="#3F3D56"/>
<path d="M264.783 63.8963H246.536V64.7261H264.783V63.8963Z" fill="#3F3D56"/>
<path d="M302.312 70.5349V103.728C293.514 103.727 285.076 100.23 278.854 94.0053C272.633 87.7805 269.137 79.338 269.137 70.5349H302.312Z" fill="#264653"/>
<path d="M302.727 244.797H200.298V70.1199H302.727V244.797ZM201.127 243.968H301.898V70.9498H201.127V243.968Z" fill="#3F3D56"/>
<path opacity="0.1" d="M278.26 101.653C284.444 101.653 289.457 96.6376 289.457 90.4506C289.457 84.2636 284.444 79.248 278.26 79.248C272.076 79.248 267.063 84.2636 267.063 90.4506C267.063 96.6376 272.076 101.653 278.26 101.653Z" fill="black"/>
<path d="M276.601 102.898C282.785 102.898 287.798 97.8823 287.798 91.6953C287.798 85.5083 282.785 80.4927 276.601 80.4927C270.418 80.4927 265.405 85.5083 265.405 91.6953C265.405 97.8823 270.418 102.898 276.601 102.898Z" fill="#264653"/>
<path d="M220.618 77.1734H204.859V82.9822H220.618V77.1734Z" fill="#3F3D56"/>
<path d="M229.326 132.357H213.568V138.165H229.326V132.357Z" fill="#3F3D56"/>
<path d="M289.872 153.932H213.568V143.144H289.872V153.932ZM214.397 153.102H289.042V143.974H214.397V153.102Z" fill="#3F3D56"/>
<path d="M285.725 177.582H210.25V187.54H285.725V177.582Z" fill="#F0F0F0"/>
<path d="M229.326 163.89H213.568V169.699H229.326V163.89Z" fill="#3F3D56"/>
<path d="M289.872 185.465H213.568V174.677H289.872V185.465ZM214.397 184.635H289.042V175.507H214.397V184.635Z" fill="#3F3D56"/>
<path d="M277.846 207.455H225.594V195.838H277.846V207.455ZM226.423 206.626H277.016V196.668H226.423V206.626Z" fill="#3F3D56"/>
<path d="M287.798 149.783C287.798 150.637 287.535 151.47 287.044 152.169C286.553 152.868 285.858 153.398 285.055 153.687C284.251 153.976 283.378 154.01 282.555 153.784C281.732 153.559 280.998 153.084 280.454 152.426L280.45 152.422C280.053 151.941 279.771 151.376 279.622 150.771C279.474 150.165 279.464 149.534 279.593 148.924C279.722 148.314 279.986 147.741 280.367 147.247C280.748 146.754 281.235 146.352 281.792 146.073C282.35 145.794 282.963 145.644 283.586 145.634C284.209 145.625 284.826 145.756 285.392 146.018C285.957 146.28 286.456 146.666 286.852 147.147C287.248 147.629 287.53 148.194 287.678 148.799C287.678 148.8 287.678 148.801 287.678 148.801C287.679 148.802 287.679 148.802 287.679 148.802C287.68 148.803 287.68 148.803 287.681 148.803C287.681 148.804 287.682 148.804 287.682 148.804C287.759 149.124 287.798 149.453 287.798 149.783Z" fill="#264653"/>
<path opacity="0.1" d="M287.798 149.783C287.798 150.637 287.535 151.47 287.044 152.169C286.553 152.868 285.858 153.398 285.055 153.687C284.251 153.976 283.378 154.01 282.555 153.784C281.732 153.559 280.998 153.084 280.454 152.426L280.45 152.422C280.373 152.101 280.334 151.772 280.334 151.442C280.334 150.588 280.597 149.755 281.088 149.056C281.579 148.357 282.274 147.827 283.077 147.538C283.881 147.249 284.754 147.215 285.577 147.441C286.4 147.667 287.134 148.141 287.678 148.799C287.678 148.8 287.678 148.801 287.678 148.801C287.678 148.802 287.679 148.802 287.679 148.802C287.68 148.803 287.68 148.803 287.681 148.803C287.681 148.804 287.682 148.804 287.682 148.804C287.759 149.124 287.798 149.453 287.798 149.783Z" fill="black"/>
<path d="M285.31 156.421C287.6 156.421 289.457 154.564 289.457 152.272C289.457 149.981 287.6 148.123 285.31 148.123C283.02 148.123 281.163 149.981 281.163 152.272C281.163 154.564 283.02 156.421 285.31 156.421Z" fill="#264653"/>
<path d="M287.798 181.316C287.798 182.17 287.535 183.004 287.044 183.702C286.553 184.401 285.858 184.931 285.055 185.22C284.251 185.509 283.378 185.543 282.555 185.318C281.732 185.092 280.998 184.617 280.454 183.959L280.45 183.955C280.053 183.474 279.771 182.909 279.622 182.304C279.474 181.698 279.464 181.067 279.593 180.457C279.722 179.847 279.986 179.274 280.367 178.78C280.748 178.287 281.235 177.885 281.792 177.606C282.35 177.327 282.963 177.177 283.586 177.167C284.209 177.158 284.826 177.289 285.392 177.551C285.957 177.813 286.456 178.199 286.852 178.681C287.248 179.162 287.53 179.727 287.678 180.333C287.678 180.333 287.678 180.334 287.678 180.334C287.679 180.335 287.679 180.335 287.679 180.336C287.68 180.336 287.68 180.336 287.681 180.337C287.681 180.337 287.682 180.337 287.682 180.337C287.759 180.658 287.798 180.986 287.798 181.316Z" fill="#264653"/>
<path opacity="0.1" d="M287.798 181.316C287.798 182.17 287.535 183.004 287.044 183.702C286.553 184.401 285.858 184.931 285.055 185.22C284.251 185.509 283.378 185.543 282.555 185.318C281.732 185.092 280.998 184.617 280.454 183.959L280.45 183.955C280.373 183.634 280.334 183.306 280.334 182.976C280.334 182.122 280.597 181.288 281.088 180.589C281.579 179.891 282.274 179.361 283.077 179.072C283.881 178.782 284.754 178.748 285.577 178.974C286.4 179.2 287.134 179.674 287.678 180.333C287.678 180.333 287.678 180.334 287.678 180.334C287.678 180.335 287.679 180.335 287.679 180.336C287.68 180.336 287.68 180.336 287.681 180.337C287.681 180.337 287.682 180.337 287.682 180.337C287.759 180.658 287.798 180.986 287.798 181.316Z" fill="black"/>
<path d="M285.31 187.955C287.6 187.955 289.457 186.097 289.457 183.805C289.457 181.514 287.6 179.656 285.31 179.656C283.02 179.656 281.163 181.514 281.163 183.805C281.163 186.097 283.02 187.955 285.31 187.955Z" fill="#264653"/>
<path d="M215.641 19.9157H194.077V41.4911H215.641V19.9157Z" fill="#F0F0F0"/>
<path d="M278.26 35.6824C277.276 35.6824 276.314 35.3903 275.496 34.8432C274.677 34.2962 274.039 33.5186 273.663 32.6088C273.286 31.699 273.188 30.6979 273.38 29.7321C273.572 28.7663 274.046 27.8791 274.741 27.1828C275.437 26.4865 276.324 26.0123 277.289 25.8202C278.255 25.628 279.255 25.7266 280.165 26.1035C281.074 26.4803 281.851 27.1185 282.398 27.9373C282.945 28.7561 283.237 29.7187 283.237 30.7034C283.235 32.0235 282.71 33.289 281.777 34.2224C280.845 35.1558 279.58 35.6809 278.26 35.6824ZM278.26 26.5543C277.44 26.5543 276.638 26.7977 275.956 27.2536C275.274 27.7095 274.743 28.3575 274.429 29.1156C274.115 29.8738 274.033 30.708 274.193 31.5129C274.353 32.3177 274.748 33.057 275.328 33.6373C275.908 34.2175 276.647 34.6127 277.451 34.7728C278.256 34.9329 279.089 34.8507 279.847 34.5367C280.605 34.2227 281.253 33.6909 281.708 33.0085C282.164 32.3262 282.407 31.524 282.407 30.7034C282.406 29.6034 281.969 28.5488 281.191 27.7709C280.414 26.9931 279.36 26.5556 278.26 26.5543Z" fill="#3F3D56"/>
<path d="M168.781 104.972H157.999V94.1848H168.781V104.972ZM158.828 104.143H167.951V95.0146H158.828V104.143Z" fill="#3F3D56"/>
<path d="M333 185.465H322.218V174.677H333V185.465ZM323.047 184.635H332.171V175.507H323.047V184.635Z" fill="#3F3D56"/>
<path d="M120.263 113.132L122.113 114.129L128.409 117.524L138.573 123.004L144.496 112.008C145.054 110.975 145.403 109.842 145.523 108.673C145.642 107.505 145.531 106.325 145.194 105.2C144.857 104.075 144.302 103.028 143.56 102.118C142.818 101.208 141.904 100.453 140.87 99.897C138.661 98.7035 136.131 98.2424 133.643 98.5801C131.155 98.9178 128.839 100.037 127.027 101.776L127.024 101.779C126.133 102.636 125.381 103.626 124.795 104.715L120.263 113.132Z" fill="#2F2E41"/>
<path d="M148.005 225.27L146.763 238.937L142.106 239.558L139.002 224.028L148.005 225.27Z" fill="#FFB8B8"/>
<path d="M140.864 239.559C140.864 239.559 146.763 236.452 148.005 238.937C148.005 238.937 147.073 246.392 150.799 247.324C154.524 248.256 156.076 254.779 150.799 255.4C145.521 256.021 142.106 254.157 140.243 254.157C138.381 254.157 140.243 247.635 140.243 247.635L140.864 239.559Z" fill="#2F2E41"/>
<path d="M110.44 225.27L111.682 238.937L116.339 239.558L119.443 224.028L110.44 225.27Z" fill="#FFB8B8"/>
<path d="M117.58 239.559C117.58 239.559 111.682 236.452 110.44 238.937C110.44 238.937 111.371 246.392 107.646 247.324C103.92 248.256 102.368 254.779 107.646 255.4C112.923 256.021 116.338 254.157 118.201 254.157C120.064 254.157 118.201 247.634 118.201 247.634L117.58 239.559Z" fill="#2F2E41"/>
<path d="M135.897 115.623C140.355 115.623 143.969 112.008 143.969 107.547C143.969 103.087 140.355 99.4715 135.897 99.4715C131.439 99.4715 127.825 103.087 127.825 107.547C127.825 112.008 131.439 115.623 135.897 115.623Z" fill="#FFB8B8"/>
<path d="M110.129 123.389L116.649 133.639L124.41 133.018L137.139 133.95C137.139 133.95 138.34 131.546 139.321 129.207C139.858 128.039 140.271 126.817 140.554 125.563C140.864 123.389 136.518 121.214 136.518 121.214C136.518 121.214 136.347 121.183 136.061 121.115C135.683 121.025 135.099 120.876 134.46 120.658C133.016 120.168 131.28 119.335 130.93 118.108C130.309 115.934 134.966 112.828 134.966 112.828L129.377 107.547C129.377 107.547 124.413 114.446 118.384 116.018C118.035 116.11 117.68 116.183 117.323 116.235C117.304 116.238 117.288 116.242 117.27 116.245C110.75 117.176 110.129 123.389 110.129 123.389Z" fill="#FFB8B8"/>
<path d="M113.544 120.593L110.129 123.389C110.129 123.389 107.335 136.745 108.267 140.473C109.198 144.2 107.956 147.617 107.956 148.238C107.956 148.859 105.162 172.155 105.162 172.155C105.162 172.155 99.574 184.58 105.473 183.337C111.371 182.095 109.198 169.67 109.198 169.67L116.339 147.927V129.601L113.544 120.593Z" fill="#FFB8B8"/>
<path d="M138.07 123.078L140.554 124.942L141.796 151.033L151.109 173.398C151.109 173.398 157.939 184.269 153.593 184.58C149.246 184.89 146.452 173.398 146.452 173.398L138.07 151.965L136.828 131.154L138.07 123.078Z" fill="#FFB8B8"/>
<path d="M122.548 124.942C122.548 124.942 128.757 129.29 138.691 127.737C138.691 127.737 141.485 133.328 139.933 136.435C138.381 139.541 141.796 146.995 142.417 147.927C143.037 148.859 150.178 168.117 152.661 188.928C155.145 209.739 161.975 224.028 156.076 225.891C150.178 227.755 138.07 229.929 136.828 228.066C135.587 226.202 133.724 179.921 133.724 179.921L130.309 197.626C130.309 197.626 134.966 227.755 131.551 228.376C128.136 228.998 106.714 227.134 107.335 223.407C107.956 219.679 114.165 200.11 114.165 200.11C114.165 200.11 113.855 160.973 120.064 153.518C120.064 153.518 122.548 149.48 119.133 144.2C115.718 138.919 116.028 130.533 116.028 130.533C116.028 130.533 118.512 130.533 122.548 124.942Z" fill="#2F2E41"/>
<path d="M117.323 116.235L122.548 127.737L123.789 127.116L118.384 116.018L117.323 116.235Z" fill="#2F2E41"/>
<path d="M134.46 120.658L138.381 129.29L139.321 129.207L139.002 127.737L136.062 121.115C135.683 121.025 135.099 120.876 134.46 120.658Z" fill="#2F2E41"/>
<path d="M122.113 114.129C122.411 115.09 122.987 115.942 123.767 116.577C124.547 117.212 125.497 117.603 126.498 117.7C127.499 117.798 128.506 117.598 129.394 117.125C130.282 116.652 131.01 115.928 131.489 115.043C127.561 109.905 130.93 106.678 137.31 104.236C137.79 103.344 137.994 102.329 137.897 101.32C137.799 100.311 137.403 99.3539 136.76 98.5707C135.002 98.3456 133.215 98.5167 131.531 99.0713C129.847 99.6259 128.308 100.55 127.027 101.776L127.024 101.779L122.492 110.191C122.169 110.789 121.969 111.445 121.904 112.122C121.839 112.798 121.91 113.481 122.113 114.129Z" fill="#2F2E41"/>
<path d="M131.085 110.343C131.685 110.343 132.172 109.509 132.172 108.479C132.172 107.45 131.685 106.616 131.085 106.616C130.485 106.616 129.998 107.45 129.998 108.479C129.998 109.509 130.485 110.343 131.085 110.343Z" fill="#FFB8B8"/>
<path d="M134.323 105.438L143.655 109.669L145.366 105.892C145.071 104.511 144.454 103.22 143.565 102.124L137.142 99.2137L134.323 105.438Z" fill="#2F2E41"/>
<path d="M156.755 188.784C159.045 188.784 160.902 186.927 160.902 184.635C160.902 182.344 159.045 180.486 156.755 180.486C154.464 180.486 152.608 182.344 152.608 184.635C152.608 186.927 154.464 188.784 156.755 188.784Z" fill="#264653"/>
<path d="M23.6196 213.45C25.1164 213.45 26.3298 212.235 26.3298 210.738C26.3298 209.24 25.1164 208.026 23.6196 208.026C22.1228 208.026 20.9094 209.24 20.9094 210.738C20.9094 212.235 22.1228 213.45 23.6196 213.45Z" fill="#FF6584"/>
<path d="M37.3122 224.87H36.4828V255.744H37.3122V224.87Z" fill="#3F3D56"/>
<path d="M36.8976 229.236C39.3076 229.236 41.2613 227.282 41.2613 224.87C41.2613 222.459 39.3076 220.504 36.8976 220.504C34.4875 220.504 32.5338 222.459 32.5338 224.87C32.5338 227.282 34.4875 229.236 36.8976 229.236Z" fill="#3F3D56"/>
<path d="M36.8976 243.899C36.8976 243.899 36.2742 230.484 23.4946 232.043L36.8976 243.899Z" fill="#3F3D56"/>
</g>
<defs>
<clipPath id="clip0">
<rect width="333" height="256" fill="white"/>
</clipPath>
</defs>
</svg>
